<?xml version="1.0" encoding="utf-8"?>
<!-- Generator: Adobe Illustrator 22.0.1, SVG Export Plug-In . SVG Version: 6.00 Build 0)  -->
<svg version="1.1" id="Слой_1" xmlns="http://www.w3.org/2000/svg" xmlns:xlink="http://www.w3.org/1999/xlink" x="0px" y="0px"
	 viewBox="0 0 133.979 26.74" style="enable-background:new 0 0 133.979 26.74;" xml:space="preserve">
<g>
	<path style="fill:#FFFFFF;" d="M0,17.752c0.504-0.019,0.886-0.079,1.148-0.183c0.261-0.103,0.466-0.321,0.616-0.658
		c0.149-0.336,0.224-0.867,0.224-1.596V4.592c0-1.045,0.037-1.885,0.112-2.52L0,2.156V0h14.84l0.14,5.432h-1.82
		c0-1.382-0.332-2.333-0.994-2.856c-0.663-0.522-1.47-0.774-2.422-0.756l-1.82,0.028c-0.448,0-0.803,0.056-1.064,0.168
		S6.398,2.357,6.258,2.702c-0.14,0.346-0.21,0.873-0.21,1.583v3.919l1.68-0.056c2.296-0.056,4.079,0.164,5.348,0.658
		c1.269,0.495,2.128,1.172,2.576,2.03c0.448,0.858,0.672,1.886,0.672,3.08c0,1.811-0.626,3.21-1.876,4.199
		c-1.251,0.99-2.894,1.484-4.928,1.484H0V17.752z M8.652,17.584c1.102-0.057,1.923-0.42,2.464-1.093
		c0.541-0.672,0.812-1.567,0.812-2.688c0-1.325-0.341-2.264-1.022-2.814c-0.682-0.55-1.545-0.825-2.59-0.825H7.112
		c-0.467,0-0.822,0.009-1.064,0.027v4.956c0,1.008-0.038,1.83-0.112,2.464C7.168,17.612,8.073,17.603,8.652,17.584z"/>
	<path style="fill:#FFFFFF;" d="M17.976,24.92c0.709,0,1.166-0.196,1.372-0.588c0.205-0.393,0.308-1.027,0.308-1.904V10.584
		c0-0.841,0.037-1.634,0.112-2.381L17.78,8.289V6.16c1.176,0,2.128-0.084,2.856-0.252s1.213-0.363,1.456-0.588h1.372
		c0.037,0.318,0.084,0.766,0.14,1.345h0.028c1.157-1.009,2.408-1.513,3.752-1.513c1.12,0,2.104,0.29,2.954,0.868
		c0.849,0.579,1.512,1.405,1.988,2.479c0.476,1.073,0.714,2.319,0.714,3.737c0,1.494-0.29,2.833-0.868,4.019
		s-1.396,2.113-2.45,2.786c-1.055,0.672-2.263,1.008-3.626,1.008c-0.728,0-1.559-0.168-2.492-0.504v2.688
		c0,0.803-0.028,1.624-0.084,2.464c0.578-0.056,1.176-0.084,1.792-0.084v2.128h-7.336V24.92z M28.924,12.656
		c0-1.381-0.248-2.557-0.742-3.527c-0.495-0.971-1.237-1.456-2.226-1.456c-0.467,0-0.91,0.111-1.33,0.336
		c-0.42,0.224-0.761,0.522-1.022,0.896v8.54c0.187,0.131,0.462,0.248,0.826,0.351c0.364,0.103,0.732,0.153,1.106,0.153
		C27.794,17.948,28.924,16.184,28.924,12.656z"/>
	<path style="fill:#FFFFFF;" d="M51.492,17.472V19.6h-7.336v-1.82c0.709,0,1.162-0.195,1.358-0.588
		c0.196-0.392,0.294-1.026,0.294-1.903v-3.977l-5.124,4.928L40.6,17.556c0.597-0.056,1.204-0.084,1.82-0.084V19.6h-7.336v-1.82
		c0.709,0,1.162-0.195,1.358-0.588c0.196-0.392,0.294-1.026,0.294-1.903v-5.181c0-0.896,0.038-1.717,0.112-2.464
		c-0.579,0.056-1.186,0.084-1.82,0.084V5.6h7.336v1.82c-0.71,0-1.162,0.195-1.358,0.588C40.81,8.4,40.712,9.035,40.712,9.912v3.585
		l5.152-4.929c0-0.242,0.018-0.55,0.056-0.924C45.341,7.7,44.734,7.728,44.1,7.728V5.6h7.336v1.82c-0.709,0-1.162,0.195-1.358,0.588
		c-0.196,0.392-0.294,1.026-0.294,1.903v5.181c0,0.896-0.038,1.718-0.112,2.464C50.269,17.5,50.876,17.472,51.492,17.472z"/>
	<path style="fill:#FFFFFF;" d="M65.352,10.696h-1.82c0-1.12-0.191-1.885-0.574-2.296c-0.383-0.41-1.013-0.616-1.89-0.616h-1.848
		v7.309c0,0.896-0.038,1.718-0.112,2.464l2.38-0.084V19.6h-7.924v-1.82c0.709,0,1.167-0.195,1.372-0.588
		c0.205-0.392,0.308-1.026,0.308-1.903v-5.181c0-0.802,0.028-1.624,0.084-2.464C54.73,7.7,54.132,7.728,53.535,7.728V5.6h11.704
		L65.352,10.696z"/>
	<path style="fill:#FFFFFF;" d="M68.109,18.999c-0.682-0.7-1.022-1.592-1.022-2.675c0-1.642,0.765-2.888,2.296-3.737
		c1.53-0.85,3.369-1.32,5.516-1.414V9.716c0-1.698-0.635-2.548-1.904-2.548c-0.822,0-1.494,0.262-2.016,0.783
		c0.224,0.262,0.336,0.616,0.336,1.064s-0.154,0.85-0.462,1.204s-0.761,0.532-1.358,0.532c-0.56,0-0.999-0.183-1.316-0.546
		c-0.318-0.364-0.476-0.816-0.476-1.358c0-0.729,0.261-1.372,0.784-1.932c0.522-0.561,1.236-0.994,2.142-1.303
		c0.905-0.308,1.899-0.462,2.982-0.462c3.454,0,5.18,1.783,5.18,5.349l-0.028,4.592c0,0.896-0.038,1.718-0.112,2.464
		c0.616-0.056,1.223-0.084,1.82-0.084V19.6h-5.292c-0.038-0.242-0.075-0.672-0.112-1.288h-0.028
		c-1.139,1.157-2.52,1.736-4.144,1.736C69.719,20.048,68.79,19.698,68.109,18.999z M74.871,16.296V13.16
		c-1.102,0.112-2.012,0.393-2.73,0.841c-0.719,0.447-1.078,1.055-1.078,1.819c0,0.504,0.154,0.878,0.462,1.12
		c0.308,0.243,0.686,0.364,1.134,0.364C73.499,17.304,74.236,16.968,74.871,16.296z"/>
	<path style="fill:#FFFFFF;" d="M98.895,24.724h-1.848c0.037-1.55-0.117-2.791-0.462-3.724c-0.346-0.934-0.873-1.4-1.582-1.4h-9.604
		c-0.691,0-1.209,0.467-1.554,1.4c-0.345,0.933-0.509,2.174-0.49,3.724h-1.82v-7.308h1.428c0.821,0,1.484-0.505,1.988-1.513
		c0.392-0.802,0.737-2.048,1.036-3.737c0.298-1.689,0.484-3.243,0.56-4.662l-2.66,0.224V5.6h13.889v1.82
		c-0.71,0-1.167,0.195-1.372,0.588c-0.206,0.392-0.309,1.026-0.309,1.903v5.181c0,0.877-0.037,1.689-0.111,2.436l2.911-0.111V24.724
		z M92.23,7.784h-2.212c-0.467,0-0.812,0.084-1.035,0.252c-0.225,0.168-0.374,0.477-0.448,0.925l-0.336,2.716
		c-0.149,1.12-0.402,2.175-0.756,3.164c-0.355,0.989-0.775,1.848-1.261,2.576h4.284c0.709,0,1.162-0.196,1.358-0.589
		c0.195-0.392,0.294-1.026,0.294-1.903v-4.844C92.119,9.24,92.156,8.475,92.23,7.784z"/>
	<path style="fill:#FFFFFF;" d="M117.179,17.472V19.6h-7.336v-1.82c0.709,0,1.162-0.195,1.358-0.588
		c0.196-0.392,0.294-1.026,0.294-1.903v-3.977l-5.124,4.928l-0.084,1.316c0.597-0.056,1.204-0.084,1.82-0.084V19.6h-7.336v-1.82
		c0.709,0,1.161-0.195,1.357-0.588c0.196-0.392,0.294-1.026,0.294-1.903v-5.181c0-0.896,0.037-1.717,0.112-2.464
		c-0.579,0.056-1.186,0.084-1.82,0.084V5.6h7.336v1.82c-0.709,0-1.162,0.195-1.357,0.588c-0.196,0.392-0.294,1.026-0.294,1.903
		v3.585l5.151-4.929c0-0.242,0.019-0.55,0.057-0.924c-0.579,0.056-1.186,0.084-1.82,0.084V5.6h7.336v1.82
		c-0.71,0-1.162,0.195-1.358,0.588c-0.195,0.392-0.294,1.026-0.294,1.903v5.181c0,0.896-0.037,1.718-0.111,2.464
		C115.956,17.5,116.563,17.472,117.179,17.472z"/>
	<path style="fill:#FFFFFF;" d="M118.915,24.92c0.709,0,1.166-0.196,1.372-0.588c0.205-0.393,0.308-1.027,0.308-1.904V10.584
		c0-0.841,0.037-1.634,0.112-2.381l-1.988,0.085V6.16c1.176,0,2.128-0.084,2.856-0.252c0.728-0.168,1.213-0.363,1.456-0.588h1.372
		c0.037,0.318,0.084,0.766,0.14,1.345h0.028c1.157-1.009,2.407-1.513,3.752-1.513c1.12,0,2.104,0.29,2.954,0.868
		c0.849,0.579,1.512,1.405,1.987,2.479c0.477,1.073,0.714,2.319,0.714,3.737c0,1.494-0.289,2.833-0.867,4.019
		c-0.579,1.186-1.396,2.113-2.45,2.786c-1.055,0.672-2.264,1.008-3.626,1.008c-0.729,0-1.56-0.168-2.492-0.504v2.688
		c0,0.803-0.028,1.624-0.084,2.464c0.578-0.056,1.176-0.084,1.792-0.084v2.128h-7.336V24.92z M129.863,12.656
		c0-1.381-0.248-2.557-0.742-3.527c-0.495-0.971-1.237-1.456-2.227-1.456c-0.467,0-0.909,0.111-1.33,0.336
		c-0.42,0.224-0.761,0.522-1.021,0.896v8.54c0.187,0.131,0.462,0.248,0.826,0.351c0.363,0.103,0.732,0.153,1.105,0.153
		C128.733,17.948,129.863,16.184,129.863,12.656z"/>
</g>
</svg>
